<svg xmlns="http://www.w3.org/2000/svg" xmlns:xlink="http://www.w3.org/1999/xlink" width="100" zoomAndPan="magnify" viewBox="0 0 75 74.999997" height="100" preserveAspectRatio="xMidYMid meet" version="1.0"><defs><clipPath id="e3c13fa1df"><path d="M 16 14.011719 L 67.386719 14.011719 L 67.386719 61.261719 L 16 61.261719 Z M 16 14.011719 " clip-rule="nonzero"/></clipPath><clipPath id="412bbd33b6"><path d="M 7.609375 23 L 25 23 L 25 51 L 7.609375 51 Z M 7.609375 23 " clip-rule="nonzero"/></clipPath></defs><g clip-path="url(#e3c13fa1df)"><path fill="#1c1c1c" d="M 18.558594 52.953125 L 48.847656 52.953125 C 50.253906 52.953125 51.445312 51.894531 51.636719 50.5 L 55.324219 22.523438 C 55.324219 22.523438 55.324219 22.523438 55.324219 22.511719 C 55.945312 17.664062 60.066406 14 64.910156 14 L 65.636719 14 C 66.625 14 67.421875 14.804688 67.421875 15.800781 C 67.421875 16.800781 66.625 17.605469 65.636719 17.605469 L 64.910156 17.605469 C 61.851562 17.605469 59.253906 19.914062 58.863281 22.980469 C 58.863281 22.980469 58.863281 22.980469 58.863281 22.992188 L 55.171875 50.96875 C 54.753906 54.15625 52.039062 56.558594 48.847656 56.558594 L 47.777344 56.558594 C 47.742188 59.179688 45.644531 61.296875 43.039062 61.296875 C 40.429688 61.296875 38.335938 59.179688 38.300781 56.558594 L 30.894531 56.558594 C 30.855469 59.179688 28.761719 61.296875 26.152344 61.296875 C 23.546875 61.296875 21.449219 59.179688 21.414062 56.558594 L 18.558594 56.558594 C 17.570312 56.558594 16.769531 55.753906 16.769531 54.757812 C 16.769531 53.757812 17.570312 52.953125 18.558594 52.953125 Z M 18.558594 52.953125 " fill-opacity="1" fill-rule="nonzero"/></g><path fill="#77bf3f" d="M 29.25 22.28125 L 35.144531 21.5625 C 37.394531 25.191406 42.277344 31.445312 50.921875 35.171875 L 49.277344 47.566406 C 37.074219 40.460938 31.167969 27.367188 29.25 22.28125 Z M 29.25 22.28125 " fill-opacity="1" fill-rule="nonzero"/><path fill="#50b948" d="M 25.59375 22.726562 C 27.273438 27.5625 33.308594 42.300781 46.96875 50.429688 L 28.226562 50.429688 C 21.9375 39.332031 20.390625 27.199219 20.035156 23.402344 Z M 25.59375 22.726562 " fill-opacity="1" fill-rule="nonzero"/><path fill="#fbcc06" d="M 51.421875 31.445312 C 45.203125 28.523438 41.289062 24.183594 39.121094 21.082031 L 50.730469 19.671875 C 51.277344 19.601562 51.824219 19.804688 52.21875 20.203125 C 52.609375 20.597656 52.789062 21.152344 52.71875 21.707031 Z M 51.421875 31.445312 " fill-opacity="1" fill-rule="nonzero"/><g clip-path="url(#412bbd33b6)"><path fill="#38a34a" d="M 8.234375 25.371094 C 8.53125 24.988281 8.960938 24.746094 9.4375 24.6875 L 16.496094 23.832031 C 16.855469 27.859375 18.320312 39.320312 24.140625 50.429688 L 16.78125 50.429688 C 13.496094 50.429688 10.6875 47.953125 10.257812 44.65625 L 7.898438 26.71875 C 7.804688 26.238281 7.9375 25.757812 8.234375 25.371094 Z M 8.234375 25.371094 " fill-opacity="1" fill-rule="nonzero"/></g></svg>